<?xml version="1.0" ?><!DOCTYPE svg  PUBLIC '-//W3C//DTD SVG 1.1//EN'  'http://www.w3.org/Graphics/SVG/1.1/DTD/svg11.dtd'><svg enable-background="new 0 0 256 256" height="256px" id="Layer_1" version="1.1" viewBox="0 0 256 256" width="256px" xml:space="preserve" xmlns="http://www.w3.org/2000/svg" xmlns:xlink="http://www.w3.org/1999/xlink"><g><g><g><path d="M193.91,77.19c-9.38-20.41-30.565-27.71-47.029-22.381c-12.307,3.986-22.768,13.535-30.857,16.367      c-1.855,0.649-3.767,1.082-5.589,1.051v125.627c10.473,0.006,21.122-1.84,31.501-5.754      C188.02,174.725,214.478,121.942,193.91,77.19z" fill="#D0BFC6"/><path d="M103.049,67.529c-2.077-3.854-0.913-7.819-0.441-10.65c0.996-5.973,4.267-11.146-4.541-21.747      c-8.221-9.895-22.299-8.478-26.261-6.983C25.721,45.526,9.646,94.04,27.025,140.124c13.464,35.706,47.381,57.71,83.41,57.73      V72.228C107.554,72.178,104.898,70.959,103.049,67.529z M77.599,64.638c-8.224,3.1-16.801,0.545-19.158-5.707      c-2.356-6.252,2.396-13.836,10.62-16.938c8.224-3.101,16.801-0.545,19.159,5.707C90.577,53.954,85.823,61.536,77.599,64.638z" fill="#DFD7D3"/><g><circle cx="165.889" cy="110.864" fill="#7990C7" r="22.212"/></g><path d="M88.803,160.985c0,12.074,9.633,21.89,21.632,22.198v-44.396      C98.436,139.097,88.803,148.912,88.803,160.985z" fill="#FFBE69"/><path d="M111.015,138.773c-0.194,0-0.387,0.01-0.58,0.015v44.396c0.193,0.005,0.386,0.015,0.58,0.015      c12.268,0,22.212-9.944,22.212-22.213C133.227,148.718,123.283,138.773,111.015,138.773z" fill="#E9A66B"/><circle cx="57.481" cy="118.82" fill="#FA5670" r="22.211"/><g><path d="M150.308,110.155c-0.138,0-0.276-0.011-0.417-0.033c-1.401-0.229-2.353-1.55-2.124-2.952       c0.907-5.569,5.291-8.613,5.479-8.741c1.171-0.798,2.771-0.498,3.572,0.679c0.796,1.168,0.499,2.759-0.663,3.562       c-0.071,0.051-2.771,2.01-3.311,5.328C152.637,109.26,151.546,110.155,150.308,110.155z" fill="#EEE4EF"/></g><g><path d="M42.826,115.962c-0.137,0-0.275-0.012-0.415-0.033c-1.402-0.228-2.354-1.548-2.127-2.95       c0.904-5.571,5.288-8.616,5.474-8.742c1.172-0.801,2.773-0.498,3.573,0.676c0.796,1.169,0.5,2.761-0.662,3.563       c-0.074,0.054-2.771,2.012-3.308,5.326C45.157,115.064,44.065,115.962,42.826,115.962z" fill="#FFFFFF"/></g><g><path d="M95.963,157.459c-0.138,0-0.276-0.011-0.417-0.033c-1.401-0.229-2.353-1.55-2.125-2.952       c0.908-5.568,5.29-8.613,5.476-8.74c1.171-0.8,2.773-0.498,3.573,0.677c0.796,1.168,0.5,2.76-0.661,3.562       c-0.068,0.05-2.771,2.009-3.311,5.329C98.292,156.563,97.201,157.459,95.963,157.459z" fill="#FFFFFF"/></g></g><g><path d="M189.185,136.432c-10.241,14.927-59.125,89.094-55.578,92.359l62.997-86.985L189.185,136.432z" fill="#3E4D75"/><path d="M196.604,141.806l-62.997,86.985c0.013,0.01,0.018,0.028,0.029,0.037      c3.898,2.823,59.477-67.13,70.51-81.558L196.604,141.806z" fill="#353859"/><path d="M205.708,145.188c5.132-7.08,11.1-22.399,6.95-25.409c-0.022-0.016-0.049-0.026-0.071-0.042      l-15.983,22.068l7.542,5.465C204.863,146.331,205.393,145.623,205.708,145.188z" fill="#E9A66B"/><path d="M190.675,134.297c-0.313,0.432-0.82,1.159-1.49,2.135l7.419,5.374l15.983-22.068      C208.367,116.891,195.782,127.252,190.675,134.297z" fill="#FFBE69"/><path d="M207.788,102.345c-4.576,6.315-3.184,15.133,3.099,19.741l21.795-30.095      C227.061,91.619,215.145,92.195,207.788,102.345z" fill="#E1A391"/><path d="M235.808,92.356c0,0-1.192-0.239-3.126-0.365l-21.795,30.095c0.022,0.017,0.042,0.036,0.065,0.053      c6.334,4.593,15.197,3.178,19.789-3.16C237.609,109.501,226.192,105.353,235.808,92.356z" fill="#CE8F8B"/></g></g></g></svg>